STARTFONT 2.1
COMMENT $XConsortium: lubI08.bdf,v 1.9 94/04/02 16:00:53 gildea Exp $
COMMENT  (c) Copyright Bigelow & Holmes 1986, 1985. Lucida is a registered
COMMENT  trademark of Bigelow & Holmes. See LEGAL NOTICE file for terms 
COMMENT  of the license. 
COMMENT  
COMMENT  Translation to ISO8859-2 by Cub Soft;  Petr.Kolar@vslib.cz
COMMENT  
FONT -B&H-LucidaBright-Medium-I-Normal--8-80-75-75-P-45-ISO8859-2
SIZE 8 72 72
FONTBOUNDINGBOX 13 11 -4 -3
STARTPROPERTIES 20
COMMENT Begin LogicalFontDescription
FONTNAME_REGISTRY ""
FOUNDRY "B&H"
FAMILY_NAME "LucidaBright"
WEIGHT_NAME "Medium"
SLANT "I"
SETWIDTH_NAME "Normal"
ADD_STYLE_NAME ""
PIXEL_SIZE 8
POINT_SIZE 80
RESOLUTION_X 75
RESOLUTION_Y 75
SPACING "P"
AVERAGE_WIDTH 45
CHARSET_REGISTRY "ISO8859"
CHARSET_ENCODING "2"
COMMENT END LogicalFontDescription
FONT_ASCENT 7
FONT_DESCENT 2
DEFAULT_CHAR 0
COPYRIGHT "Copyright Bigelow & Holmes 1986, 1985., Copyright 1996 Cub Soft"
FACE_NAME "Lucida Bright Italic"
ENDPROPERTIES
CHARS 191
STARTCHAR space
ENCODING 32
SWIDTH 333 0
DWIDTH 2 0
BBX 1 1 0 0
BITMAP
00
ENDCHAR
STARTCHAR exclam
ENCODING 33
SWIDTH 265 0
DWIDTH 2 0
BBX 2 6 1 0
BITMAP
40
40
40
40
00
80
ENDCHAR
STARTCHAR quotedbl
ENCODING 34
SWIDTH 377 0
DWIDTH 3 0
BBX 2 2 2 4
BITMAP
c0
c0
ENDCHAR
STARTCHAR numbersign
ENCODING 35
SWIDTH 608 0
DWIDTH 5 0
BBX 5 6 1 0
BITMAP
28
f8
50
f8
a0
a0
ENDCHAR
STARTCHAR dollar
ENCODING 36
SWIDTH 608 0
DWIDTH 5 0
BBX 3 7 2 -1
BITMAP
60
40
40
40
c0
c0
80
ENDCHAR
STARTCHAR percent
ENCODING 37
SWIDTH 759 0
DWIDTH 6 0
BBX 5 6 1 0
BITMAP
48
f0
70
58
58
90
ENDCHAR
STARTCHAR ampersand
ENCODING 38
SWIDTH 727 0
DWIDTH 6 0
BBX 6 6 1 0
BITMAP
30
30
30
ec
98
f8
ENDCHAR
STARTCHAR apostrophe
ENCODING 39
SWIDTH 265 0
DWIDTH 2 0
BBX 1 2 2 4
BITMAP
80
80
ENDCHAR
STARTCHAR parenleft
ENCODING 40
SWIDTH 310 0
DWIDTH 2 0
BBX 3 8 1 -2
BITMAP
60
40
80
80
80
80
80
80
ENDCHAR
STARTCHAR parenright
ENCODING 41
SWIDTH 310 0
DWIDTH 2 0
BBX 3 9 0 -2
BITMAP
40
20
20
20
20
20
40
80
80
ENDCHAR
STARTCHAR asterisk
ENCODING 42
SWIDTH 458 0
DWIDTH 4 0
BBX 3 3 1 3
BITMAP
40
e0
c0
ENDCHAR
STARTCHAR plus
ENCODING 43
SWIDTH 608 0
DWIDTH 5 0
BBX 5 5 1 0
BITMAP
20
20
f8
40
40
ENDCHAR
STARTCHAR comma
ENCODING 44
SWIDTH 265 0
DWIDTH 2 0
BBX 1 3 1 -2
BITMAP
80
80
80
ENDCHAR
STARTCHAR minus
ENCODING 45
SWIDTH 608 0
DWIDTH 5 0
BBX 5 1 0 2
BITMAP
f8
ENDCHAR
STARTCHAR period
ENCODING 46
SWIDTH 265 0
DWIDTH 2 0
BBX 1 1 1 0
BITMAP
80
ENDCHAR
STARTCHAR slash
ENCODING 47
SWIDTH 458 0
DWIDTH 4 0
BBX 5 8 0 -2
BITMAP
08
10
10
30
40
40
80
80
ENDCHAR
STARTCHAR zero
ENCODING 48
SWIDTH 608 0
DWIDTH 5 0
BBX 4 6 1 0
BITMAP
70
50
90
90
90
60
ENDCHAR
STARTCHAR one
ENCODING 49
SWIDTH 608 0
DWIDTH 5 0
BBX 3 6 1 0
BITMAP
60
20
40
40
40
e0
ENDCHAR
STARTCHAR two
ENCODING 50
SWIDTH 608 0
DWIDTH 5 0
BBX 4 6 1 0
BITMAP
70
50
30
40
80
e0
ENDCHAR
STARTCHAR three
ENCODING 51
SWIDTH 608 0
DWIDTH 5 0
BBX 4 6 1 0
BITMAP
70
50
60
10
90
e0
ENDCHAR
STARTCHAR four
ENCODING 52
SWIDTH 608 0
DWIDTH 5 0
BBX 4 6 1 0
BITMAP
30
50
90
f0
20
70
ENDCHAR
STARTCHAR five
ENCODING 53
SWIDTH 608 0
DWIDTH 5 0
BBX 4 6 1 0
BITMAP
70
40
60
10
90
e0
ENDCHAR
STARTCHAR six
ENCODING 54
SWIDTH 608 0
DWIDTH 5 0
BBX 4 6 1 0
BITMAP
30
40
f0
90
90
60
ENDCHAR
STARTCHAR seven
ENCODING 55
SWIDTH 608 0
DWIDTH 5 0
BBX 4 6 1 0
BITMAP
70
20
20
40
80
80
ENDCHAR
STARTCHAR eight
ENCODING 56
SWIDTH 608 0
DWIDTH 5 0
BBX 4 6 1 0
BITMAP
60
50
60
a0
a0
e0
ENDCHAR
STARTCHAR nine
ENCODING 57
SWIDTH 608 0
DWIDTH 5 0
BBX 4 6 1 0
BITMAP
70
90
90
70
30
e0
ENDCHAR
STARTCHAR colon
ENCODING 58
SWIDTH 265 0
DWIDTH 2 0
BBX 2 4 0 0
BITMAP
40
00
00
80
ENDCHAR
STARTCHAR semicolon
ENCODING 59
SWIDTH 265 0
DWIDTH 2 0
BBX 2 6 0 -2
BITMAP
40
00
00
80
80
80
ENDCHAR
STARTCHAR less
ENCODING 60
SWIDTH 608 0
DWIDTH 5 0
BBX 5 5 1 0
BITMAP
08
30
c0
20
10
ENDCHAR
STARTCHAR equal
ENCODING 61
SWIDTH 608 0
DWIDTH 5 0
BBX 5 2 0 1
BITMAP
f8
f8
ENDCHAR
STARTCHAR greater
ENCODING 62
SWIDTH 608 0
DWIDTH 5 0
BBX 5 5 0 0
BITMAP
40
30
08
30
c0
ENDCHAR
STARTCHAR question
ENCODING 63
SWIDTH 471 0
DWIDTH 4 0
BBX 3 6 1 0
BITMAP
e0
a0
60
40
80
80
ENDCHAR
STARTCHAR at
ENCODING 64
SWIDTH 861 0
DWIDTH 7 0
BBX 6 6 1 0
BITMAP
38
74
d4
d4
f8
70
ENDCHAR
STARTCHAR A
ENCODING 65
SWIDTH 747 0
DWIDTH 6 0
BBX 6 6 0 0
BITMAP
10
18
28
78
88
cc
ENDCHAR
STARTCHAR B
ENCODING 66
SWIDTH 606 0
DWIDTH 5 0
BBX 5 6 0 0
BITMAP
78
48
70
48
48
f0
ENDCHAR
STARTCHAR C
ENCODING 67
SWIDTH 714 0
DWIDTH 6 0
BBX 5 6 1 0
BITMAP
38
48
80
80
80
70
ENDCHAR
STARTCHAR D
ENCODING 68
SWIDTH 770 0
DWIDTH 6 0
BBX 6 6 0 0
BITMAP
78
44
44
44
48
f0
ENDCHAR
STARTCHAR E
ENCODING 69
SWIDTH 569 0
DWIDTH 5 0
BBX 5 6 0 0
BITMAP
78
28
70
40
50
f0
ENDCHAR
STARTCHAR F
ENCODING 70
SWIDTH 551 0
DWIDTH 4 0
BBX 5 6 0 0
BITMAP
78
28
70
40
40
c0
ENDCHAR
STARTCHAR G
ENCODING 71
SWIDTH 756 0
DWIDTH 6 0
BBX 5 6 1 0
BITMAP
38
48
80
98
90
70
ENDCHAR
STARTCHAR H
ENCODING 72
SWIDTH 776 0
DWIDTH 6 0
BBX 7 6 0 0
BITMAP
66
24
7c
44
48
cc
ENDCHAR
STARTCHAR I
ENCODING 73
SWIDTH 325 0
DWIDTH 3 0
BBX 3 6 0 0
BITMAP
60
40
40
40
40
c0
ENDCHAR
STARTCHAR J
ENCODING 74
SWIDTH 422 0
DWIDTH 3 0
BBX 5 8 0 -2
BITMAP
38
10
10
10
20
20
a0
c0
ENDCHAR
STARTCHAR K
ENCODING 75
SWIDTH 698 0
DWIDTH 6 0
BBX 6 6 0 0
BITMAP
6c
28
70
70
50
d8
ENDCHAR
STARTCHAR L
ENCODING 76
SWIDTH 572 0
DWIDTH 5 0
BBX 4 6 0 0
BITMAP
60
40
40
40
50
f0
ENDCHAR
STARTCHAR M
ENCODING 77
SWIDTH 865 0
DWIDTH 7 0
BBX 8 6 0 0
BITMAP
63
66
6e
5a
54
c6
ENDCHAR
STARTCHAR N
ENCODING 78
SWIDTH 762 0
DWIDTH 6 0
BBX 7 6 0 0
BITMAP
46
64
54
54
4c
c8
ENDCHAR
STARTCHAR O
ENCODING 79
SWIDTH 783 0
DWIDTH 6 0
BBX 6 6 1 0
BITMAP
38
44
84
88
88
70
ENDCHAR
STARTCHAR P
ENCODING 80
SWIDTH 579 0
DWIDTH 5 0
BBX 5 6 0 0
BITMAP
78
48
48
70
40
c0
ENDCHAR
STARTCHAR Q
ENCODING 81
SWIDTH 788 0
DWIDTH 6 0
BBX 6 8 1 -2
BITMAP
38
4c
84
88
88
70
10
1c
ENDCHAR
STARTCHAR R
ENCODING 82
SWIDTH 686 0
DWIDTH 5 0
BBX 5 6 0 0
BITMAP
78
48
48
70
50
c8
ENDCHAR
STARTCHAR S
ENCODING 83
SWIDTH 549 0
DWIDTH 4 0
BBX 4 6 1 0
BITMAP
70
50
40
20
90
e0
ENDCHAR
STARTCHAR T
ENCODING 84
SWIDTH 663 0
DWIDTH 5 0
BBX 5 6 1 0
BITMAP
f8
a8
20
20
40
e0
ENDCHAR
STARTCHAR U
ENCODING 85
SWIDTH 727 0
DWIDTH 6 0
BBX 6 6 1 0
BITMAP
cc
88
88
88
88
f0
ENDCHAR
STARTCHAR V
ENCODING 86
SWIDTH 656 0
DWIDTH 5 0
BBX 6 6 1 0
BITMAP
cc
4c
48
50
60
20
ENDCHAR
STARTCHAR W
ENCODING 87
SWIDTH 878 0
DWIDTH 7 0
BBX 7 6 1 0
BITMAP
d6
96
74
7c
58
50
ENDCHAR
STARTCHAR X
ENCODING 88
SWIDTH 624 0
DWIDTH 5 0
BBX 6 6 0 0
BITMAP
64
28
10
30
50
d8
ENDCHAR
STARTCHAR Y
ENCODING 89
SWIDTH 663 0
DWIDTH 5 0
BBX 5 6 1 0
BITMAP
c8
58
70
60
40
e0
ENDCHAR
STARTCHAR Z
ENCODING 90
SWIDTH 633 0
DWIDTH 5 0
BBX 5 6 1 0
BITMAP
78
50
20
20
50
f0
ENDCHAR
STARTCHAR bracketleft
ENCODING 91
SWIDTH 310 0
DWIDTH 2 0
BBX 3 8 0 -2
BITMAP
60
40
40
40
40
80
80
c0
ENDCHAR
STARTCHAR backslash
ENCODING 92
SWIDTH 458 0
DWIDTH 4 0
BBX 2 8 1 -2
BITMAP
80
80
80
80
80
40
40
40
ENDCHAR
STARTCHAR bracketright
ENCODING 93
SWIDTH 310 0
DWIDTH 2 0
BBX 3 8 0 -2
BITMAP
60
20
20
40
40
40
40
c0
ENDCHAR
STARTCHAR asciicircum
ENCODING 94
SWIDTH 608 0
DWIDTH 5 0
BBX 5 5 0 1
BITMAP
10
30
58
48
88
ENDCHAR
STARTCHAR underscore
ENCODING 95
SWIDTH 500 0
DWIDTH 4 0
BBX 3 1 1 -1
BITMAP
e0
ENDCHAR
STARTCHAR grave
ENCODING 96
SWIDTH 560 0
DWIDTH 4 0
BBX 1 1 3 5
BITMAP
80
ENDCHAR
STARTCHAR a
ENCODING 97
SWIDTH 608 0
DWIDTH 5 0
BBX 4 4 1 0
BITMAP
70
90
b0
f0
ENDCHAR
STARTCHAR b
ENCODING 98
SWIDTH 596 0
DWIDTH 5 0
BBX 4 6 1 0
BITMAP
c0
40
70
50
90
e0
ENDCHAR
STARTCHAR c
ENCODING 99
SWIDTH 487 0
DWIDTH 4 0
BBX 4 4 1 0
BITMAP
70
90
80
e0
ENDCHAR
STARTCHAR d
ENCODING 100
SWIDTH 608 0
DWIDTH 5 0
BBX 5 6 0 0
BITMAP
18
08
70
90
90
f8
ENDCHAR
STARTCHAR e
ENCODING 101
SWIDTH 518 0
DWIDTH 4 0
BBX 4 4 1 0
BITMAP
60
a0
f0
e0
ENDCHAR
STARTCHAR f
ENCODING 102
SWIDTH 380 0
DWIDTH 3 0
BBX 4 8 1 -2
BITMAP
30
50
60
40
40
40
80
80
ENDCHAR
STARTCHAR g
ENCODING 103
SWIDTH 602 0
DWIDTH 5 0
BBX 5 6 0 -2
BITMAP
38
48
90
f0
90
e0
ENDCHAR
STARTCHAR h
ENCODING 104
SWIDTH 631 0
DWIDTH 5 0
BBX 4 6 1 0
BITMAP
c0
40
70
50
90
90
ENDCHAR
STARTCHAR i
ENCODING 105
SWIDTH 289 0
DWIDTH 2 0
BBX 2 6 1 0
BITMAP
40
00
c0
80
80
c0
ENDCHAR
STARTCHAR j
ENCODING 106
SWIDTH 343 0
DWIDTH 3 0
BBX 4 8 0 -2
BITMAP
10
00
30
20
20
20
a0
c0
ENDCHAR
STARTCHAR k
ENCODING 107
SWIDTH 560 0
DWIDTH 4 0
BBX 4 6 1 0
BITMAP
c0
40
70
40
a0
b0
ENDCHAR
STARTCHAR l
ENCODING 108
SWIDTH 289 0
DWIDTH 2 0
BBX 2 6 1 0
BITMAP
c0
40
40
40
80
c0
ENDCHAR
STARTCHAR m
ENCODING 109
SWIDTH 944 0
DWIDTH 8 0
BBX 7 4 1 0
BITMAP
f6
7a
d2
96
ENDCHAR
STARTCHAR n
ENCODING 110
SWIDTH 631 0
DWIDTH 5 0
BBX 4 4 1 0
BITMAP
f0
d0
90
90
ENDCHAR
STARTCHAR o
ENCODING 111
SWIDTH 560 0
DWIDTH 4 0
BBX 4 4 1 0
BITMAP
70
90
90
e0
ENDCHAR
STARTCHAR p
ENCODING 112
SWIDTH 608 0
DWIDTH 5 0
BBX 5 6 0 -2
BITMAP
f8
68
48
70
80
80
ENDCHAR
STARTCHAR q
ENCODING 113
SWIDTH 599 0
DWIDTH 5 0
BBX 4 6 1 -2
BITMAP
70
90
b0
e0
20
20
ENDCHAR
STARTCHAR r
ENCODING 114
SWIDTH 470 0
DWIDTH 4 0
BBX 4 4 1 0
BITMAP
f0
70
c0
80
ENDCHAR
STARTCHAR s
ENCODING 115
SWIDTH 440 0
DWIDTH 4 0
BBX 3 4 0 0
BITMAP
60
60
a0
e0
ENDCHAR
STARTCHAR t
ENCODING 116
SWIDTH 355 0
DWIDTH 3 0
BBX 3 6 1 0
BITMAP
40
40
e0
80
80
c0
ENDCHAR
STARTCHAR u
ENCODING 117
SWIDTH 630 0
DWIDTH 5 0
BBX 4 4 1 0
BITMAP
d0
90
b0
f0
ENDCHAR
STARTCHAR v
ENCODING 118
SWIDTH 558 0
DWIDTH 4 0
BBX 5 4 0 0
BITMAP
c8
50
70
60
ENDCHAR
STARTCHAR w
ENCODING 119
SWIDTH 805 0
DWIDTH 6 0
BBX 6 5 1 0
BITMAP
04
94
74
7c
48
ENDCHAR
STARTCHAR x
ENCODING 120
SWIDTH 510 0
DWIDTH 4 0
BBX 4 4 0 0
BITMAP
d0
60
60
90
ENDCHAR
STARTCHAR y
ENCODING 121
SWIDTH 558 0
DWIDTH 4 0
BBX 5 6 0 -2
BITMAP
c8
48
30
30
60
80
ENDCHAR
STARTCHAR z
ENCODING 122
SWIDTH 536 0
DWIDTH 4 0
BBX 4 4 1 0
BITMAP
70
60
50
e0
ENDCHAR
STARTCHAR braceleft
ENCODING 123
SWIDTH 337 0
DWIDTH 3 0
BBX 3 8 1 -2
BITMAP
60
40
40
80
80
80
80
80
ENDCHAR
STARTCHAR bar
ENCODING 124
SWIDTH 241 0
DWIDTH 2 0
BBX 2 8 0 -2
BITMAP
40
40
40
80
80
80
80
80
ENDCHAR
STARTCHAR braceright
ENCODING 125
SWIDTH 337 0
DWIDTH 3 0
BBX 3 8 1 -2
BITMAP
60
20
20
20
40
40
40
80
ENDCHAR
STARTCHAR asciitilde
ENCODING 126
SWIDTH 608 0
DWIDTH 5 0
BBX 6 2 1 1
BITMAP
64
9c
ENDCHAR
STARTCHAR nobreakspace
ENCODING 160
SWIDTH 333 0
DWIDTH 2 0
BBX 1 1 0 0
BITMAP
00
ENDCHAR
STARTCHAR Aogonek
ENCODING 161
SWIDTH 747 0
DWIDTH 6 0
BBX 6 8 0 -2
BITMAP
10
18
28
78
88
cc
20
20
ENDCHAR
STARTCHAR breve
ENCODING 162
SWIDTH 560 0
DWIDTH 4 0
BBX 3 1 2 5
BITMAP
e0
ENDCHAR
STARTCHAR Lstroke
ENCODING 163
SWIDTH 572 0
DWIDTH 4 0
BBX 4 6 0 0
BITMAP
60
20
60
c0
50
f0
ENDCHAR
STARTCHAR currency
ENCODING 164
SWIDTH 608 0
DWIDTH 5 0
BBX 6 6 0 0
BITMAP
4c
38
50
50
f0
88
ENDCHAR
STARTCHAR Lcaron
ENCODING 165
SWIDTH 750 0
DWIDTH 6 0
BBX 5 6 0 0
BITMAP
68
48
40
40
50
f0
ENDCHAR
STARTCHAR Sacute
ENCODING 166
SWIDTH 549 0
DWIDTH 4 0
BBX 4 8 1 0
BITMAP
30
00
70
50
40
20
90
e0
ENDCHAR
STARTCHAR section
ENCODING 167
SWIDTH 608 0
DWIDTH 5 0
BBX 3 8 1 -2
BITMAP
60
e0
80
e0
e0
20
a0
c0
ENDCHAR
STARTCHAR diaeresis
ENCODING 168
SWIDTH 560 0
DWIDTH 4 0
BBX 2 1 2 5
BITMAP
c0
ENDCHAR
STARTCHAR Scaron
ENCODING 169
SWIDTH 549 0
DWIDTH 4 0
BBX 4 8 1 0
BITMAP
70
00
70
50
40
20
90
e0
ENDCHAR
STARTCHAR Scedilla
ENCODING 170
SWIDTH 549 0
DWIDTH 4 0
BBX 4 8 1 -2
BITMAP
70
50
40
20
90
e0
40
40
ENDCHAR
STARTCHAR Tcaron
ENCODING 171
SWIDTH 663 0
DWIDTH 5 0
BBX 5 8 1 0
BITMAP
70
00
f8
a8
20
20
40
e0
ENDCHAR
STARTCHAR Zacute
ENCODING 172
SWIDTH 633 0
DWIDTH 5 0
BBX 5 8 1 0
BITMAP
30
00
78
50
20
20
50
f0
ENDCHAR
STARTCHAR hyphen
ENCODING 173
SWIDTH 313 0
DWIDTH 3 0
BBX 2 1 1 2
BITMAP
c0
ENDCHAR
STARTCHAR Zcaron
ENCODING 174
SWIDTH 633 0
DWIDTH 5 0
BBX 5 8 1 0
BITMAP
70
00
78
50
20
20
50
f0
ENDCHAR
STARTCHAR Zabovedot
ENCODING 175
SWIDTH 633 0
DWIDTH 5 0
BBX 5 8 1 0
BITMAP
20
00
78
50
20
20
50
f0
ENDCHAR
STARTCHAR degree
ENCODING 176
SWIDTH 277 0
DWIDTH 2 0
BBX 1 2 1 4
BITMAP
80
80
ENDCHAR
STARTCHAR aogonek
ENCODING 177
SWIDTH 608 0
DWIDTH 5 0
BBX 4 6 1 -2
BITMAP
70
90
b0
f0
40
40
ENDCHAR
STARTCHAR ogonek
ENCODING 178
SWIDTH 560 0
DWIDTH 4 0
BBX 1 2 1 -3
BITMAP
80
80
ENDCHAR
STARTCHAR lstroke
ENCODING 179
SWIDTH 289 0
DWIDTH 2 0
BBX 3 6 0 0
BITMAP
60
40
c0
60
40
c0
ENDCHAR
STARTCHAR acute
ENCODING 180
SWIDTH 560 0
DWIDTH 4 0
BBX 2 1 3 5
BITMAP
c0
ENDCHAR
STARTCHAR lcaron
ENCODING 181
SWIDTH 500 0
DWIDTH 4 0
BBX 4 6 1 0
BITMAP
d0
50
40
40
80
c0
ENDCHAR
STARTCHAR sacute
ENCODING 182
SWIDTH 440 0
DWIDTH 4 0
BBX 3 6 0 0
BITMAP
60
00
60
60
a0
e0
ENDCHAR
STARTCHAR caron
ENCODING 183
SWIDTH 560 0
DWIDTH 4 0
BBX 3 1 2 5
BITMAP
e0
ENDCHAR
STARTCHAR cedilla
ENCODING 184
SWIDTH 560 0
DWIDTH 4 0
BBX 1 2 1 -2
BITMAP
80
80
ENDCHAR
STARTCHAR scaron
ENCODING 185
SWIDTH 440 0
DWIDTH 4 0
BBX 3 6 0 0
BITMAP
e0
00
60
60
a0
e0
ENDCHAR
STARTCHAR scedilla
ENCODING 186
SWIDTH 440 0
DWIDTH 4 0
BBX 3 6 0 -2
BITMAP
60
60
a0
e0
40
40
ENDCHAR
STARTCHAR tcaron
ENCODING 187
SWIDTH 500 0
DWIDTH 4 0
BBX 4 7 1 0
BITMAP
10
50
40
e0
80
80
c0
ENDCHAR
STARTCHAR zacute
ENCODING 188
SWIDTH 536 0
DWIDTH 4 0
BBX 4 6 1 0
BITMAP
30
00
70
60
50
e0
ENDCHAR
STARTCHAR doubleacute
ENCODING 189
SWIDTH 560 0
DWIDTH 4 0
BBX 3 1 2 5
BITMAP
e0
ENDCHAR
STARTCHAR zcaron
ENCODING 190
SWIDTH 536 0
DWIDTH 4 0
BBX 4 6 1 0
BITMAP
70
00
70
60
50
e0
ENDCHAR
STARTCHAR zabovedot
ENCODING 191
SWIDTH 536 0
DWIDTH 4 0
BBX 4 6 1 0
BITMAP
20
00
70
60
50
e0
ENDCHAR
STARTCHAR Racute
ENCODING 192
SWIDTH 686 0
DWIDTH 5 0
BBX 5 8 0 0
BITMAP
30
00
78
48
48
70
50
c8
ENDCHAR
STARTCHAR Aacute
ENCODING 193
SWIDTH 747 0
DWIDTH 6 0
BBX 6 7 0 0
BITMAP
0c
10
18
28
78
88
cc
ENDCHAR
STARTCHAR Acircumflex
ENCODING 194
SWIDTH 747 0
DWIDTH 6 0
BBX 6 7 0 0
BITMAP
1c
10
18
28
78
88
cc
ENDCHAR
STARTCHAR Abreve
ENCODING 195
SWIDTH 747 0
DWIDTH 6 0
BBX 6 8 0 0
BITMAP
38
00
10
18
28
78
88
cc
ENDCHAR
STARTCHAR Adiaeresis
ENCODING 196
SWIDTH 747 0
DWIDTH 6 0
BBX 6 7 0 0
BITMAP
18
10
18
28
78
88
cc
ENDCHAR
STARTCHAR Lacute
ENCODING 197
SWIDTH 572 0
DWIDTH 5 0
BBX 4 8 0 0
BITMAP
60
00
60
40
40
40
50
f0
ENDCHAR
STARTCHAR Cacute
ENCODING 198
SWIDTH 714 0
DWIDTH 6 0
BBX 5 8 1 0
BITMAP
30
00
38
48
80
80
80
70
ENDCHAR
STARTCHAR Ccedilla
ENCODING 199
SWIDTH 714 0
DWIDTH 6 0
BBX 5 8 1 -2
BITMAP
38
48
80
80
80
70
40
40
ENDCHAR
STARTCHAR Ccaron
ENCODING 200
SWIDTH 714 0
DWIDTH 6 0
BBX 5 8 1 0
BITMAP
70
00
38
48
80
80
80
70
ENDCHAR
STARTCHAR Eacute
ENCODING 201
SWIDTH 569 0
DWIDTH 5 0
BBX 5 7 0 0
BITMAP
10
78
28
70
40
50
f0
ENDCHAR
STARTCHAR Eogonek
ENCODING 202
SWIDTH 569 0
DWIDTH 5 0
BBX 5 8 0 -2
BITMAP
78
28
70
40
50
f0
20
20
ENDCHAR
STARTCHAR Ediaeresis
ENCODING 203
SWIDTH 569 0
DWIDTH 5 0
BBX 5 7 0 0
BITMAP
30
78
28
70
40
50
f0
ENDCHAR
STARTCHAR Ecaron
ENCODING 204
SWIDTH 569 0
DWIDTH 5 0
BBX 5 8 0 0
BITMAP
70
00
78
28
70
40
50
f0
ENDCHAR
STARTCHAR Iacute
ENCODING 205
SWIDTH 325 0
DWIDTH 3 0
BBX 4 7 0 0
BITMAP
30
60
40
40
40
40
c0
ENDCHAR
STARTCHAR Icircumflex
ENCODING 206
SWIDTH 325 0
DWIDTH 3 0
BBX 4 7 0 0
BITMAP
70
60
40
40
40
40
c0
ENDCHAR
STARTCHAR Dcaron
ENCODING 207
SWIDTH 770 0
DWIDTH 6 0
BBX 6 8 0 0
BITMAP
38
00
78
44
44
44
48
f0
ENDCHAR
STARTCHAR Dstroke
ENCODING 208
SWIDTH 770 0
DWIDTH 6 0
BBX 6 6 0 0
BITMAP
78
44
e4
44
48
f0
ENDCHAR
STARTCHAR Nacute
ENCODING 209
SWIDTH 762 0
DWIDTH 6 0
BBX 7 8 0 0
BITMAP
18
00
46
64
54
54
4c
c8
ENDCHAR
STARTCHAR Ncaron
ENCODING 210
SWIDTH 762 0
DWIDTH 6 0
BBX 7 8 0 0
BITMAP
38
00
46
64
54
54
4c
c8
ENDCHAR
STARTCHAR Oacute
ENCODING 211
SWIDTH 783 0
DWIDTH 6 0
BBX 6 7 1 0
BITMAP
10
38
44
84
88
88
70
ENDCHAR
STARTCHAR Ocircumflex
ENCODING 212
SWIDTH 783 0
DWIDTH 6 0
BBX 6 7 1 0
BITMAP
28
38
44
84
88
88
70
ENDCHAR
STARTCHAR Odoubleacute
ENCODING 213
SWIDTH 783 0
DWIDTH 6 0
BBX 6 8 1 0
BITMAP
38
00
38
44
84
88
88
70
ENDCHAR
STARTCHAR Odiaeresis
ENCODING 214
SWIDTH 783 0
DWIDTH 6 0
BBX 6 7 1 0
BITMAP
18
38
44
84
88
88
70
ENDCHAR
STARTCHAR multiply
ENCODING 215
SWIDTH 608 0
DWIDTH 5 0
BBX 5 5 0 0
BITMAP
48
50
20
50
90
ENDCHAR
STARTCHAR Rcaron
ENCODING 216
SWIDTH 686 0
DWIDTH 5 0
BBX 5 8 0 0
BITMAP
70
00
78
48
48
70
50
c8
ENDCHAR
STARTCHAR Uring
ENCODING 217
SWIDTH 727 0
DWIDTH 6 0
BBX 6 10 1 0
BITMAP
20
50
20
00
cc
88
88
88
88
f0
ENDCHAR
STARTCHAR Uacute
ENCODING 218
SWIDTH 727 0
DWIDTH 6 0
BBX 6 7 1 0
BITMAP
18
cc
88
88
88
88
f0
ENDCHAR
STARTCHAR Udoubleacute
ENCODING 219
SWIDTH 727 0
DWIDTH 6 0
BBX 6 8 1 0
BITMAP
70
00
cc
88
88
88
88
f0
ENDCHAR
STARTCHAR Udiaeresis
ENCODING 220
SWIDTH 727 0
DWIDTH 6 0
BBX 6 7 1 0
BITMAP
30
cc
88
88
88
88
f0
ENDCHAR
STARTCHAR Yacute
ENCODING 221
SWIDTH 663 0
DWIDTH 5 0
BBX 5 7 1 0
BITMAP
30
c8
58
70
60
40
e0
ENDCHAR
STARTCHAR Tcedilla
ENCODING 222
SWIDTH 663 0
DWIDTH 5 0
BBX 5 8 1 -2
BITMAP
f8
a8
20
20
40
e0
20
20
ENDCHAR
STARTCHAR ssharp
ENCODING 223
SWIDTH 603 0
DWIDTH 5 0
BBX 4 8 1 -2
BITMAP
30
50
60
70
50
b0
80
80
ENDCHAR
STARTCHAR racute
ENCODING 224
SWIDTH 470 0
DWIDTH 4 0
BBX 4 6 1 0
BITMAP
60
00
f0
70
c0
80
ENDCHAR
STARTCHAR aacute
ENCODING 225
SWIDTH 608 0
DWIDTH 5 0
BBX 4 5 1 0
BITMAP
20
70
90
b0
f0
ENDCHAR
STARTCHAR acircumflex
ENCODING 226
SWIDTH 608 0
DWIDTH 5 0
BBX 4 5 1 0
BITMAP
50
70
90
b0
f0
ENDCHAR
STARTCHAR abreve
ENCODING 227
SWIDTH 608 0
DWIDTH 5 0
BBX 4 6 1 0
BITMAP
e0
00
70
90
b0
f0
ENDCHAR
STARTCHAR adiaeresis
ENCODING 228
SWIDTH 608 0
DWIDTH 5 0
BBX 4 5 1 0
BITMAP
30
70
90
b0
f0
ENDCHAR
STARTCHAR lacute
ENCODING 229
SWIDTH 289 0
DWIDTH 2 0
BBX 2 8 1 0
BITMAP
c0
00
c0
40
40
40
80
c0
ENDCHAR
STARTCHAR cacute
ENCODING 230
SWIDTH 487 0
DWIDTH 4 0
BBX 4 6 1 0
BITMAP
60
00
70
90
80
e0
ENDCHAR
STARTCHAR ccedilla
ENCODING 231
SWIDTH 487 0
DWIDTH 4 0
BBX 4 6 1 -2
BITMAP
70
90
80
e0
40
40
ENDCHAR
STARTCHAR ccaron
ENCODING 232
SWIDTH 487 0
DWIDTH 4 0
BBX 4 6 1 0
BITMAP
e0
00
70
90
80
e0
ENDCHAR
STARTCHAR eacute
ENCODING 233
SWIDTH 518 0
DWIDTH 4 0
BBX 4 5 1 0
BITMAP
30
60
a0
f0
e0
ENDCHAR
STARTCHAR eogonek
ENCODING 234
SWIDTH 518 0
DWIDTH 4 0
BBX 4 6 1 -2
BITMAP
60
a0
f0
e0
40
40
ENDCHAR
STARTCHAR ediaeresis
ENCODING 235
SWIDTH 518 0
DWIDTH 4 0
BBX 4 5 1 0
BITMAP
30
60
a0
f0
e0
ENDCHAR
STARTCHAR ecaron
ENCODING 236
SWIDTH 518 0
DWIDTH 4 0
BBX 4 6 1 0
BITMAP
e0
00
60
a0
f0
e0
ENDCHAR
STARTCHAR iacute
ENCODING 237
SWIDTH 289 0
DWIDTH 2 0
BBX 3 5 1 0
BITMAP
60
c0
40
80
c0
ENDCHAR
STARTCHAR icircumflex
ENCODING 238
SWIDTH 289 0
DWIDTH 2 0
BBX 3 5 1 0
BITMAP
e0
c0
40
80
c0
ENDCHAR
STARTCHAR dcaron
ENCODING 239
SWIDTH 875 0
DWIDTH 7 0
BBX 7 6 0 0
BITMAP
1a
0a
70
90
90
f8
ENDCHAR
STARTCHAR dstroke
ENCODING 240
SWIDTH 750 0
DWIDTH 6 0
BBX 6 6 0 0
BITMAP
1c
08
70
90
90
f8
ENDCHAR
STARTCHAR nacute
ENCODING 241
SWIDTH 631 0
DWIDTH 5 0
BBX 4 6 1 0
BITMAP
60
00
f0
d0
90
90
ENDCHAR
STARTCHAR ncaron
ENCODING 242
SWIDTH 631 0
DWIDTH 5 0
BBX 4 6 1 0
BITMAP
e0
00
f0
d0
90
90
ENDCHAR
STARTCHAR oacute
ENCODING 243
SWIDTH 560 0
DWIDTH 4 0
BBX 4 5 1 0
BITMAP
20
70
90
90
e0
ENDCHAR
STARTCHAR ocircumflex
ENCODING 244
SWIDTH 560 0
DWIDTH 4 0
BBX 4 5 1 0
BITMAP
50
70
90
90
e0
ENDCHAR
STARTCHAR odoubleacute
ENCODING 245
SWIDTH 560 0
DWIDTH 4 0
BBX 4 6 1 0
BITMAP
e0
00
70
90
90
e0
ENDCHAR
STARTCHAR odiaeresis
ENCODING 246
SWIDTH 560 0
DWIDTH 4 0
BBX 4 5 1 0
BITMAP
30
70
90
90
e0
ENDCHAR
STARTCHAR division
ENCODING 247
SWIDTH 608 0
DWIDTH 5 0
BBX 5 4 0 0
BITMAP
20
00
f8
20
ENDCHAR
STARTCHAR rcaron
ENCODING 248
SWIDTH 470 0
DWIDTH 4 0
BBX 4 6 1 0
BITMAP
e0
00
f0
70
c0
80
ENDCHAR
STARTCHAR uring
ENCODING 249
SWIDTH 630 0
DWIDTH 5 0
BBX 4 8 1 0
BITMAP
40
a0
40
00
d0
90
b0
f0
ENDCHAR
STARTCHAR uacute
ENCODING 250
SWIDTH 630 0
DWIDTH 5 0
BBX 4 5 1 0
BITMAP
30
d0
90
b0
f0
ENDCHAR
STARTCHAR udoubleacute
ENCODING 251
SWIDTH 630 0
DWIDTH 5 0
BBX 4 6 1 0
BITMAP
e0
00
d0
90
b0
f0
ENDCHAR
STARTCHAR udiaeresis
ENCODING 252
SWIDTH 630 0
DWIDTH 5 0
BBX 4 5 1 0
BITMAP
30
d0
90
b0
f0
ENDCHAR
STARTCHAR yacute
ENCODING 253
SWIDTH 558 0
DWIDTH 4 0
BBX 5 7 0 -2
BITMAP
18
c8
48
30
30
60
80
ENDCHAR
STARTCHAR tcedilla
ENCODING 254
SWIDTH 355 0
DWIDTH 3 0
BBX 3 8 1 -2
BITMAP
40
40
e0
80
80
c0
40
40
ENDCHAR
STARTCHAR abovedot
ENCODING 255
SWIDTH 560 0
DWIDTH 4 0
BBX 1 1 3 5
BITMAP
80
ENDCHAR
ENDFONT
